<?xml version="1.0" encoding="UTF-8" standalone="no"?>
<!-- Created with Inkscape (http://www.inkscape.org/) -->

<svg
   xmlns:dc="http://purl.org/dc/elements/1.1/"
   xmlns:cc="http://creativecommons.org/ns#"
   xmlns:rdf="http://www.w3.org/1999/02/22-rdf-syntax-ns#"
   xmlns:svg="http://www.w3.org/2000/svg"
   xmlns="http://www.w3.org/2000/svg"
   xmlns:xlink="http://www.w3.org/1999/xlink"
   xmlns:sodipodi="http://sodipodi.sourceforge.net/DTD/sodipodi-0.dtd"
   xmlns:inkscape="http://www.inkscape.org/namespaces/inkscape"
   width="192"
   height="192"
   viewBox="0 0 192 192"
   id="svg3336"
   version="1.1"
   inkscape:version="0.91 r13725"
   sodipodi:docname="icon.svg"
   enable-background="new"
   inkscape:export-filename="C:\Users\Daniel\AndroidStudioProjects\QuadBridge\app\src\main\res\mipmap-xxxhdpi\ic_launcher.png"
   inkscape:export-xdpi="90"
   inkscape:export-ydpi="90">
  <defs
     id="defs3338">
    <linearGradient
       inkscape:collect="always"
       id="linearGradient3952">
      <stop
         style="stop-color:#ffffff;stop-opacity:1;"
         offset="0"
         id="stop3954" />
      <stop
         style="stop-color:#ffffff;stop-opacity:0"
         offset="1"
         id="stop3956" />
    </linearGradient>
    <filter
       inkscape:collect="always"
       id="filter3095">
      <feBlend
         inkscape:collect="always"
         mode="darken"
         in2="BackgroundImage"
         id="feBlend3097" />
    </filter>
    <filter
       inkscape:collect="always"
       id="filter3891">
      <feBlend
         inkscape:collect="always"
         mode="lighten"
         in2="BackgroundImage"
         id="feBlend3893" />
    </filter>
    <linearGradient
       inkscape:collect="always"
       xlink:href="#linearGradient3952"
       id="linearGradient3958"
       x1="18.475433"
       y1="18.552162"
       x2="100.0406"
       y2="102.70808"
       gradientUnits="userSpaceOnUse" />
    <filter
       inkscape:collect="always"
       id="filter3960">
      <feBlend
         inkscape:collect="always"
         mode="lighten"
         in2="BackgroundImage"
         id="feBlend3962" />
    </filter>
    <filter
       inkscape:collect="always"
       id="filter4164">
      <feBlend
         inkscape:collect="always"
         mode="darken"
         in2="BackgroundImage"
         id="feBlend4166" />
    </filter>
    <filter
       inkscape:collect="always"
       id="filter3847">
      <feBlend
         inkscape:collect="always"
         mode="darken"
         in2="BackgroundImage"
         id="feBlend3849" />
    </filter>
    <filter
       inkscape:collect="always"
       id="filter4182">
      <feGaussianBlur
         inkscape:collect="always"
         stdDeviation="1.9684559"
         id="feGaussianBlur4184" />
    </filter>
    <filter
       inkscape:collect="always"
       style="color-interpolation-filters:sRGB"
       id="filter4228"
       x="-0.02400002"
       width="1.048"
       y="-0.024000023"
       height="1.048">
      <feGaussianBlur
         inkscape:collect="always"
         stdDeviation="1.5200013"
         id="feGaussianBlur4230" />
    </filter>
  </defs>
  <sodipodi:namedview
     id="base"
     pagecolor="#ffffff"
     bordercolor="#666666"
     borderopacity="1.0"
     inkscape:pageopacity="0.0"
     inkscape:pageshadow="2"
     inkscape:zoom="2.5"
     inkscape:cx="85.768194"
     inkscape:cy="113.52629"
     inkscape:document-units="px"
     inkscape:current-layer="layer8"
     showgrid="false"
     units="px"
     inkscape:window-width="1920"
     inkscape:window-height="1053"
     inkscape:window-x="-9"
     inkscape:window-y="-9"
     inkscape:window-maximized="1" />
  <metadata
     id="metadata3341">
    <rdf:RDF>
      <cc:Work
         rdf:about="">
        <dc:format>image/svg+xml</dc:format>
        <dc:type
           rdf:resource="http://purl.org/dc/dcmitype/StillImage" />
        <dc:title />
      </cc:Work>
    </rdf:RDF>
  </metadata>
  <g
     inkscape:groupmode="layer"
     id="layer8"
     inkscape:label="BG DROP SHADOW"
     style="display:inline;opacity:0.1;filter:url(#filter4164)">
    <path
       style="display:inline;fill:#000000;fill-opacity:1;stroke-width:1;stroke-miterlimit:4;filter:url(#filter4228)"
       d="m 34.999998,20.40002 122.000002,0 c 8.31,0 15,6.69 15,15 L 172,157.4 c 0,8.31 -6.69,15 -15,15 l -122.000002,0 c -8.31,0 -15,-6.69 -15,-15 l 0,-121.99998 c 0,-8.31 6.69,-15 15,-15 z"
       id="path4161"
       inkscape:connector-curvature="0"
       transform="matrix(0.9543486,0,0,0.94381279,4.3944966,13.829129)" />
  </g>
  <g
     inkscape:label="BACKGROUND"
     inkscape:groupmode="layer"
     id="layer1"
     transform="translate(0,-860.36213)"
     style="display:inline">
    <path
       inkscape:connector-curvature="0"
       id="path3940"
       d="m 34.999998,880.36212 122.000002,0 c 8.31,0 15,6.69 15,15 l 0,121.99998 c 0,8.31 -6.69,15 -15,15 l -122.000002,0 c -8.31,0 -15,-6.69 -15,-15 l 0,-121.99998 c 0,-8.31 6.69,-15 15,-15 z"
       style="fill:#ffda00;fill-opacity:1;stroke-width:1;stroke-miterlimit:4" />
  </g>
  <g
     inkscape:groupmode="layer"
     id="layer3"
     inkscape:label="BOTTOM_BG_TINT"
     style="display:inline">
    <path
       style="color:#000000;font-style:normal;font-variant:normal;font-weight:normal;font-stretch:normal;font-size:medium;line-height:normal;font-family:sans-serif;text-indent:0;text-align:start;text-decoration:none;text-decoration-line:none;letter-spacing:normal;word-spacing:normal;text-transform:none;direction:ltr;block-progression:tb;writing-mode:lr-tb;baseline-shift:baseline;text-anchor:start;display:inline;overflow:visible;visibility:visible;opacity:0.2;fill:#bf3603;fill-opacity:1;fill-rule:nonzero;stroke:none;enable-background:accumulate"
       d="M 20,157.71484 C 20.57032,165.7129 27.200908,172 35.353516,172 l 121.292964,0 c 8.1526,0 14.78319,-6.2871 15.35352,-14.28516 l -0.44727,0 c -0.18388,0.009 -0.36517,0.0255 -0.55078,0.0273 -0.57882,7.44838 -6.74615,13.26367 -14.35547,13.26367 l -121.292964,0 c -7.618783,0 -13.793759,-5.82931 -14.359375,-13.29102 l -0.994141,0 z"
       id="rect4148"
       inkscape:connector-curvature="0" />
  </g>
  <g
     inkscape:groupmode="layer"
     id="layer4"
     inkscape:label="TOP_BG_TINT"
     style="display:inline;filter:url(#filter3891)">
    <path
       style="color:#000000;font-style:normal;font-variant:normal;font-weight:normal;font-stretch:normal;font-size:medium;line-height:normal;font-family:sans-serif;text-indent:0;text-align:start;text-decoration:none;text-decoration-line:none;letter-spacing:normal;word-spacing:normal;text-transform:none;direction:ltr;block-progression:tb;writing-mode:lr-tb;baseline-shift:baseline;text-anchor:start;display:inline;overflow:visible;visibility:visible;opacity:0.35;fill:#ffffff;fill-opacity:1;fill-rule:nonzero;stroke:none;enable-background:accumulate"
       d="M 35.025085,20 C 27.740437,20 21.668306,24.967893 20,31.685547 c 0.2892,-0.01637 0.575218,-0.04297 0.868684,-0.04297 l 0.170985,0 C 22.693321,25.493681 28.296978,20.99414 35.025085,20.99414 l 121.961625,0 c 6.7281,0 12.33176,4.499541 13.98542,10.648437 l 1.02787,0 C 170.31634,24.946912 164.2557,20 156.98671,20 L 35.025085,20 Z"
       id="rect4160"
       inkscape:connector-curvature="0" />
  </g>
  <g
     inkscape:groupmode="layer"
     id="layer2"
     inkscape:label="BODY DROP SHADOW"
     style="display:inline;opacity:0.15;filter:url(#filter3095)">
    <g
       id="g4038"
       transform="translate(0.8338287,2.1322592)"
       style="filter:url(#filter4182)">
      <path
         inkscape:connector-curvature="0"
         id="path3943"
         d="m 54.643652,156.95346 c -7.308096,-0.89456 -13.539589,-3.91129 -18.633171,-9.02052 -3.524511,-3.53533 -5.881008,-7.32003 -7.468956,-11.99566 -4.92381,-14.49791 1.582076,-30.59167 15.180731,-37.55292 3.120315,-1.597311 5.152174,-2.260808 10.049936,-3.281769 0.750597,-0.156466 0.74378,-0.161529 -0.43573,-0.323645 C 49.853704,94.300266 45.699245,92.827789 42.334284,90.87941 35.349628,86.835157 30.335148,80.335866 28.099507,72.42965 c -0.783311,-2.770135 -0.885119,-3.338357 -1.116838,-6.233414 -0.609531,-7.615373 1.82113,-15.417965 6.753871,-21.680403 3.327369,-4.224313 8.334148,-7.806319 13.608637,-9.736045 16.844516,-6.162739 35.518523,3.307276 40.517728,20.547465 0.985555,3.398774 1.272518,5.881434 1.132294,9.795996 -0.06883,1.921571 -0.193706,3.787882 -0.277495,4.147359 -0.138555,0.594454 -0.07219,0.552776 0.733382,-0.460575 2.010806,-2.529446 4.043516,-3.657836 6.586902,-3.656494 1.335455,6.53e-4 1.861729,0.110557 2.88052,0.601272 1.220102,0.587675 3.101462,2.214747 4.065282,3.515797 0.34237,0.462166 0.45074,0.525977 0.37001,0.217865 -0.28233,-1.077466 -0.5724,-5.60037 -0.45411,-7.08061 0.7515,-9.404057 4.88567,-17.405037 11.76575,-22.770612 10.46809,-8.163762 24.49291,-8.976844 35.72985,-2.071421 9.13621,5.614468 14.7087,15.663417 14.705,26.517752 -0.003,9.789325 -4.818,19.253676 -12.74706,25.057355 -2.13426,1.562166 -6.14805,3.607014 -8.60282,4.382752 -2.05514,0.649449 -4.97044,1.323534 -5.92764,1.370606 -0.27466,0.01351 0.33395,0.194518 1.35247,0.402246 7.0983,1.44771 12.19032,4.106793 16.89049,8.820299 5.78878,5.80521 9.01951,13.58391 9.03163,21.74562 0.0124,8.38054 -3.23864,16.27304 -9.13607,22.1792 -6.39319,6.40265 -16.23851,9.92805 -24.95598,8.93622 -13.17811,-1.49935 -23.524,-10.23336 -26.98828,-22.78352 -0.29769,-1.07844 -0.62161,-2.35295 -0.71984,-2.83225 -0.14636,-0.71416 -0.1898,-0.46839 -0.24068,1.36166 l -0.0621,2.23311 -1.51743,0 -1.517434,0 0,-0.62179 0,-0.6218 -1.143791,0.5554 c -1.661002,0.80655 -3.933054,0.80337 -5.664488,-0.008 l -1.252723,-0.58698 0,0.64154 0,0.64155 -1.416122,0 -1.416122,0 0,-2.22222 c 0,-2.43986 -0.209569,-2.57062 -0.628497,-0.39216 -0.14978,0.77887 -0.603187,2.41221 -1.007573,3.62966 -3.554198,10.70028 -12.866913,18.71438 -24.015601,20.66675 -2.413856,0.42272 -6.647059,0.57453 -8.770987,0.31455 l 0,-1e-5 z m 7.092553,-7.06775 c 14.197996,-2.30282 23.285719,-16.26949 19.598968,-30.1211 -2.243323,-8.42846 -8.652937,-14.77372 -17.346469,-17.17232 -2.756331,-0.76048 -7.048115,-0.95416 -9.944899,-0.44878 -9.330649,1.62785 -16.678258,8.24309 -19.312739,17.38776 -2.858522,9.92235 1.215256,20.8405 9.921653,26.59108 5.126909,3.38633 11.182861,4.72041 17.083486,3.76336 z m 75.996305,-0.007 c 9.41056,-1.64106 16.85083,-8.1592 19.41544,-17.00912 0.7514,-2.59292 0.97798,-4.18185 0.9799,-6.87156 0.005,-6.48572 -2.48386,-12.49951 -7.0699,-17.08554 -7.2623,-7.2623 -18.56192,-9.149562 -27.67791,-4.62276 -4.71564,2.34168 -8.83883,6.44259 -11.0094,10.94992 -3.92783,8.15637 -3.34723,16.74606 1.64214,24.29458 1.50615,2.27869 4.20563,5.02284 6.31715,6.4217 5.26867,3.49043 11.6427,4.92723 17.40258,3.92279 l 0,-10e-6 z M 82.211946,99.608088 c 0.009,-7.090745 0.284218,-10.373813 1.310312,-15.631597 0.292309,-1.497822 0.531852,-2.756312 0.532316,-2.796643 4.35e-4,-0.04033 -0.573907,0.694961 -1.276379,1.633987 -4.13568,5.528351 -10.386301,9.626717 -17.350229,11.376087 -0.958606,0.240804 -2.282135,0.509225 -2.941177,0.596486 l -1.198257,0.15866 2.49412,0.492615 c 6.547821,1.293261 12.359375,4.455705 16.677993,9.075577 0.83878,0.89729 1.574075,1.6435 1.633987,1.65824 0.05991,0.0147 0.112704,-2.9388 0.117314,-6.563412 l 0,0 z m 33.540264,1.195532 c 3.50886,-2.495911 8.22193,-4.558547 12.09406,-5.292866 2.82868,-0.536437 2.86449,-0.553686 1.52505,-0.734629 -3.2401,-0.4377 -7.71554,-1.994798 -10.78431,-3.752085 -3.58892,-2.055142 -7.12761,-5.153582 -9.35333,-8.189678 -0.59095,-0.806117 -1.11127,-1.42886 -1.15626,-1.383873 -0.045,0.04499 0.11342,1.097427 0.35202,2.338756 1.1299,5.878529 1.67377,12.678163 1.48481,18.563505 l -0.12484,3.88824 2.04825,-2.05493 c 1.12655,-1.13021 2.88809,-2.65231 3.91455,-3.38244 l 0,0 z M 64.185552,87.352707 c 6.911629,-1.839602 12.659242,-6.669693 15.713163,-13.204785 5.092667,-10.89781 1.359408,-23.847951 -8.771381,-30.426666 -9.569706,-6.214359 -22.108214,-4.877393 -30.206488,3.220882 -10.414525,10.414525 -9.193877,27.440205 2.611695,36.4281 1.963175,1.494619 5.791479,3.331758 8.31783,3.991591 3.958654,1.033919 8.428758,1.030614 12.335181,-0.0091 l 0,7e-6 z m 75.591168,0.120954 c 9.43427,-2.419828 16.23845,-9.697734 18.03661,-19.292377 0.53586,-2.859242 0.3399,-7.528005 -0.43436,-10.348584 -0.69991,-2.549739 -2.54893,-6.384626 -3.99811,-8.292125 -5.15211,-6.781519 -13.66596,-10.539638 -21.74859,-9.600102 -10.6122,1.233576 -18.7436,8.428456 -21.20606,18.763687 -1.87704,7.878126 0.65605,16.569154 6.52973,22.403509 5.97438,5.93438 14.8503,8.410369 22.82078,6.365992 l 0,0 z"
         style="fill:#000000;fill-opacity:1;stroke-width:7;stroke-miterlimit:4;stroke-dasharray:none" />
      <path
         inkscape:connector-curvature="0"
         id="path3951"
         d="m 64.016093,146.58007 c -0.358129,-0.0969 -1.943044,-2.9095 -4.66117,-8.2718 l -1.66946,-3.2935 -1.370178,-0.10999 c -2.761756,-0.22168 -5.061417,-1.7781 -6.332032,-4.28554 -0.535326,-1.05642 -0.603493,-1.10898 -1.438172,-1.10898 -0.481916,0 -2.514578,-0.0961 -4.517027,-0.21363 -2.00245,-0.11749 -4.566018,-0.25199 -5.696818,-0.29888 -1.847086,-0.0766 -2.098949,-0.1379 -2.478673,-0.60337 -0.37723,-0.4624 -0.408789,-0.74937 -0.293528,-2.66912 0.185866,-3.09571 0.26851,-3.18579 2.926906,-3.19016 1.165538,-0.002 4.386784,0.1123 7.158323,0.2538 l 5.039164,0.25727 0.843189,-0.82101 c 1.416325,-1.37908 2.741761,-1.92817 4.92221,-2.03912 l 1.90037,-0.0967 3.911881,-5.93561 c 2.151531,-3.26459 4.065973,-5.99475 4.254311,-6.06702 0.458065,-0.17577 0.832963,-0.0155 2.630018,1.12466 1.761644,1.11766 2.069716,1.44295 2.069716,2.18537 0,0.80077 -1.664104,3.74849 -4.846666,8.58517 l -2.833421,4.30607 0.297037,1.03162 c 0.436907,1.51739 0.343933,3.67883 -0.21234,4.93637 l -0.465002,1.05122 3.049804,5.89824 c 2.08658,4.03539 3.049804,6.12198 3.049804,6.60666 0,0.67979 -0.08882,0.75288 -2.198373,1.80896 -2.155858,1.07926 -2.358775,1.14327 -3.039873,0.95902 z"
         style="fill:#000000;fill-opacity:1;stroke-width:7;stroke-miterlimit:4;stroke-dasharray:none" />
      <path
         style="fill:#000000;fill-opacity:1;stroke-width:7;stroke-miterlimit:4;stroke-dasharray:none"
         d="m 65.516093,83.920094 c -0.358129,-0.0969 -1.943044,-2.9095 -4.66117,-8.2718 l -1.66946,-3.2935 -1.370178,-0.10999 c -2.761756,-0.22168 -5.061417,-1.7781 -6.332032,-4.28554 -0.535326,-1.05642 -0.603493,-1.10898 -1.438172,-1.10898 -0.481916,0 -2.514578,-0.0961 -4.517027,-0.21363 -2.00245,-0.11749 -4.566018,-0.25199 -5.696818,-0.29888 -1.847086,-0.0766 -2.098949,-0.1379 -2.478673,-0.60337 -0.37723,-0.4624 -0.408789,-0.74937 -0.293528,-2.66912 0.185866,-3.09571 0.26851,-3.18579 2.926906,-3.19016 1.165538,-0.002 4.386784,0.1123 7.158323,0.2538 l 5.039164,0.25727 0.843189,-0.82101 c 1.416325,-1.37908 2.741761,-1.92817 4.92221,-2.03912 l 1.90037,-0.0967 3.911881,-5.93561 c 2.151531,-3.26459 4.065973,-5.99475 4.254311,-6.06702 0.458065,-0.17577 0.832963,-0.0155 2.630018,1.12466 1.761644,1.11766 2.069716,1.44295 2.069716,2.18537 0,0.80077 -1.664104,3.74849 -4.846666,8.58517 l -2.833421,4.30607 0.297037,1.03162 c 0.436907,1.51739 0.343933,3.67883 -0.21234,4.93637 l -0.465002,1.05122 3.049804,5.89824 c 2.08658,4.03539 3.049804,6.12198 3.049804,6.60666 0,0.67979 -0.08882,0.75288 -2.198373,1.80896 -2.155858,1.07926 -2.358775,1.14327 -3.039873,0.95902 z"
         id="path4010"
         inkscape:connector-curvature="0" />
      <path
         inkscape:connector-curvature="0"
         id="path3949"
         d="m 124.2515,145.81512 c -2.06862,-1.05001 -2.50545,-1.40244 -2.50545,-2.02139 0,-0.25509 1.18455,-2.86244 2.63233,-5.79411 2.07187,-4.19544 2.58119,-5.3999 2.39218,-5.65712 -0.62666,-0.8528 -1.51718,-2.97329 -1.64795,-3.92407 -0.18089,-1.31525 0.20327,-3.29379 0.87764,-4.52004 l 0.51022,-0.92778 -2.89772,-4.45972 c -1.59375,-2.45284 -3.18045,-5.00088 -3.52601,-5.66231 -0.59056,-1.13041 -0.60839,-1.23858 -0.29697,-1.80205 0.46441,-0.84032 3.96365,-3.18862 4.49846,-3.01888 0.22723,0.0721 1.7335,2.14321 3.34725,4.60242 5.1354,7.82588 4.82892,7.43562 5.93749,7.56057 1.35074,0.15225 3.16391,1.046 4.15018,2.04572 l 0.8355,0.84688 2.10568,-0.0531 c 1.15813,-0.0292 3.62529,-0.15005 5.48259,-0.26853 1.8573,-0.11847 4.48806,-0.24163 5.84613,-0.27368 3.14409,-0.0742 3.18879,-0.0336 3.4129,3.09754 0.21958,3.06796 0.14514,3.16204 -2.6525,3.35206 -3.36612,0.22865 -12.34207,0.78346 -12.73565,0.78721 -0.21249,0.002 -0.58788,0.47796 -0.93241,1.18215 -0.89857,1.83661 -2.66112,3.22359 -4.84312,3.81115 l -0.90003,0.24235 -2.7656,5.3904 c -1.52107,2.96472 -2.97083,5.61099 -3.22169,5.8806 -0.62423,0.6709 -1.08282,0.60939 -3.10345,-0.41627 z"
         style="fill:#000000;fill-opacity:1;stroke-width:7;stroke-miterlimit:4;stroke-dasharray:none" />
      <path
         style="fill:#000000;fill-opacity:1;stroke-width:7;stroke-miterlimit:4;stroke-dasharray:none"
         d="m 124.16196,82.642959 c -2.06862,-1.05001 -2.50545,-1.40244 -2.50545,-2.02139 0,-0.25509 1.18455,-2.86244 2.63233,-5.79411 2.07187,-4.19544 2.58119,-5.3999 2.39218,-5.65712 -0.62666,-0.8528 -1.51718,-2.97329 -1.64795,-3.92407 -0.18089,-1.31525 0.20327,-3.29379 0.87764,-4.52004 l 0.51022,-0.92778 -2.89772,-4.45972 c -1.59375,-2.45284 -3.18045,-5.00088 -3.52601,-5.66231 -0.59056,-1.13041 -0.60839,-1.23858 -0.29697,-1.80205 0.46441,-0.84032 3.96365,-3.18862 4.49846,-3.01888 0.22723,0.0721 1.7335,2.14321 3.34725,4.60242 5.1354,7.82588 4.82892,7.43562 5.93749,7.56057 1.35074,0.15225 3.16391,1.046 4.15018,2.04572 l 0.8355,0.84688 2.10568,-0.0531 c 1.15813,-0.0292 3.62529,-0.15005 5.48259,-0.26853 1.8573,-0.11847 4.48806,-0.24163 5.84613,-0.27368 3.14409,-0.0742 3.18879,-0.0336 3.4129,3.09754 0.21958,3.06796 0.14514,3.16204 -2.6525,3.35206 -3.36612,0.22865 -12.34207,0.78346 -12.73565,0.78721 -0.21249,0.002 -0.58788,0.47796 -0.93241,1.18215 -0.89857,1.83661 -2.66112,3.22359 -4.84312,3.81115 l -0.90003,0.24235 -2.7656,5.3904 c -1.52107,2.96472 -2.97083,5.61099 -3.22169,5.8806 -0.62423,0.6709 -1.08282,0.60939 -3.10345,-0.41627 z"
         id="path4008"
         inkscape:connector-curvature="0" />
    </g>
  </g>
  <g
     inkscape:groupmode="layer"
     id="layer7"
     inkscape:label="DIRECTIONAL SHADOW"
     style="display:inline;opacity:0.12000002;filter:url(#filter3847)">
    <path
       style="fill:#000000;fill-opacity:1;stroke-width:1;stroke-miterlimit:4"
       d="m 58.15625,33.59375 c -3.159007,-0.0077 -6.396661,0.391096 -9.09375,1.21875 -10.993116,3.373451 -19.091725,12.322019 -21.46875,23.71875 -0.86379,4.14147 -0.633287,10.095369 0.53125,14.03125 1.314591,4.443026 3.332366,8.321558 6.03125,11.59375 l -0.0625,0.0625 0.8125,0.8125 c 0.03878,0.0435 0.08596,0.08172 0.125,0.125 0.836858,0.927727 1.73354,1.771165 2.6875,2.59375 l 9.84375,9.65625 c -2.50935,0.922123 -5.173879,2.184575 -6.875,3.34375 -14.403234,9.81465 -17.974451,29.47109 -7.9375,43.5625 0.427375,0.60001 0.878084,1.18598 1.34375,1.75 l 0.09375,0.0937 c 1.322842,1.58836 2.801902,3.02719 4.40625,4.3125 L 60.46875,172 157,172 c 8.31,0 15,-6.69 15,-15 l 0,-98.34375 -15.1875,-14.96875 -0.0312,-0.03125 c -0.83905,-0.930228 -1.73951,-1.802005 -2.6875,-2.625 -0.0447,-0.03885 -0.08,-0.0864 -0.125,-0.125 L 153.25,40.1875 153.1875,40.25 c -3.84444,-3.086048 -8.46929,-5.262708 -13.59375,-6.21875 -4.07095,-0.759494 -10.11458,-0.4761 -13.84375,0.625 -5.52188,1.630428 -9.56083,3.976505 -13.5,7.84375 -6.28994,6.175109 -9.281,13.84697 -9.0625,23.09375 l -22.53125,-22.0625 -0.0625,-0.0625 c -0.631825,-0.684714 -1.31063,-1.313644 -2,-1.9375 L 78.15625,41.09375 78.125,41.125 c -4.05308,-3.52274 -9.004787,-6.020076 -14.5,-7.0625 -1.707004,-0.323813 -3.573346,-0.464107 -5.46875,-0.46875 z"
       id="path4253"
       inkscape:connector-curvature="0" />
  </g>
  <g
     inkscape:groupmode="layer"
     id="layer6"
     inkscape:label="BODY"
     style="display:inline">
    <path
       inkscape:connector-curvature="0"
       id="ellipse4198"
       d="M 161.69705,64 A 27.697046,27.697046 0 0 1 134,91.697046 27.697046,27.697046 0 0 1 106.30295,64 27.697046,27.697046 0 0 1 134,36.302954 27.697046,27.697046 0 0 1 161.69705,64 Z"
       style="fill:none;stroke:#ffffff;stroke-width:7;stroke-linejoin:round;stroke-miterlimit:4;stroke-dasharray:none;stroke-opacity:1" />
    <path
       inkscape:connector-curvature="0"
       id="ellipse4200"
       d="M 85.697046,126 A 27.697046,27.697046 0 0 1 58,153.69705 27.697046,27.697046 0 0 1 30.302954,126 27.697046,27.697046 0 0 1 58,98.30295 27.697046,27.697046 0 0 1 85.697046,126 Z"
       style="fill:none;stroke:#ffffff;stroke-width:7;stroke-linejoin:round;stroke-miterlimit:4;stroke-dasharray:none;stroke-opacity:1" />
    <path
       inkscape:connector-curvature="0"
       id="ellipse4202"
       d="M 161.69705,126 A 27.697046,27.697046 0 0 1 134,153.69705 27.697046,27.697046 0 0 1 106.30295,126 27.697046,27.697046 0 0 1 134,98.30295 27.697046,27.697046 0 0 1 161.69705,126 Z"
       style="fill:none;stroke:#ffffff;stroke-width:7;stroke-linejoin:round;stroke-miterlimit:4;stroke-dasharray:none;stroke-opacity:1" />
    <path
       inkscape:connector-curvature="0"
       id="path4205"
       d="M 107.65165,100 A 11.651647,32.651646 0 0 1 96,132.65165 11.651647,32.651646 0 0 1 84.348353,100 11.651647,32.651646 0 0 1 96,67.348354 11.651647,32.651646 0 0 1 107.65165,100 Z"
       style="fill:none;stroke:#ffffff;stroke-width:4.69670677;stroke-linejoin:round;stroke-miterlimit:4;stroke-dasharray:none;stroke-opacity:1" />
    <path
       inkscape:connector-curvature="0"
       id="rect4207"
       d="m 89.5,131 3,0 0,5 -3,0 z"
       style="fill:#ffffff;fill-opacity:1;stroke:#ffffff;stroke-width:0;stroke-linejoin:round;stroke-miterlimit:4;stroke-dasharray:none;stroke-opacity:1" />
    <path
       inkscape:connector-curvature="0"
       id="rect4209"
       d="m 99.5,131 3,0 0,5 -3,0 z"
       style="fill:#ffffff;fill-opacity:1;stroke:#ffffff;stroke-width:0;stroke-linejoin:round;stroke-miterlimit:4;stroke-dasharray:none;stroke-opacity:1" />
    <path
       style="fill:#ffffff;fill-opacity:1"
       d="m 95.771883,67.887959 c -3.935078,0.714609 -5.858103,4.935669 -7.25,8.260416 -3.832751,10.792852 -4.293977,22.531687 -3.104166,33.843755 1.117799,6.55692 1.976208,13.56609 5.895833,19.14583 1.437771,2.2895 4.669539,4.2677 7.114583,2.1875 4.413437,-3.22835 5.523907,-9.0287 6.864587,-14 2.65469,-12.00098 2.38743,-24.647229 -0.375,-36.604168 -1.34134,-4.59965 -2.86965,-10.04034 -7.35417,-12.53125 -0.563019,-0.235828 -1.18117,-0.354352 -1.791667,-0.302083 z"
       id="path3807"
       inkscape:connector-curvature="0" />
    <path
       style="fill:#ffffff;fill-opacity:1"
       d="m 123.84286,44.963693 c -1.66005,0.538948 -3.22214,1.636165 -4.46556,2.832031 -0.10672,1.903732 1.85176,3.269841 2.57922,4.947482 1.9993,3.350984 4.57737,6.440767 6.10331,10.029435 -0.12768,1.124631 0.48088,2.247672 0.49716,3.320313 -2.03126,4.959013 -5.04788,9.512528 -6.97798,14.497514 0.5477,1.506452 2.50804,1.756594 3.78196,2.512429 1.27309,0.785088 2.39198,-0.306611 2.81428,-1.482599 2.54051,-4.203966 4.27077,-8.922527 7.07563,-12.943892 1.66009,-0.679593 2.63257,-2.695034 4.63237,-2.263641 4.93025,-0.300786 9.89276,-0.309834 14.79235,-0.896871 1.56881,-1.144152 0.50212,-3.501857 0.63483,-5.117651 -0.0269,-2.322892 -2.80405,-1.114603 -4.25485,-1.214062 -4.56317,0.176092 -9.24722,0.747554 -13.73616,0.552239 -0.9208,-1.054379 -2.3879,-1.51845 -3.69318,-1.642401 -3.24558,-4.060653 -5.57514,-8.839801 -8.80682,-12.899503 -0.27698,-0.196402 -0.64175,-0.274095 -0.97656,-0.230823 z"
       id="path3817"
       inkscape:connector-curvature="0" />
    <path
       style="fill:#ffffff;fill-opacity:1"
       d="m 123.57652,108.04324 c -1.36355,1.19444 -3.71897,1.79471 -4.13707,3.74645 2.01541,3.86398 4.75376,7.41956 7.00889,11.14983 0.82159,1.43899 2.20615,2.81872 1.70027,4.62609 0.0873,1.06293 0.56043,2.10471 -0.17756,3.08061 -1.99889,4.37419 -4.44157,8.61311 -6.35349,13.00506 0.13124,1.66049 2.49755,1.80314 3.66706,2.68481 1.11922,0.90301 2.45171,0.21818 2.7493,-1.08534 2.38901,-4.07845 4.11413,-8.6148 6.74644,-12.4916 1.6255,-0.37887 2.62115,-2.03092 3.86186,-2.82316 5.39816,-0.60888 10.86139,-0.57051 16.25533,-1.15412 1.4105,-1.21302 0.21449,-3.38829 0.41766,-4.98483 -0.0831,-2.28915 -2.98014,-1.15966 -4.44651,-1.32009 -4.79796,0.0996 -9.62271,0.79695 -14.39267,0.54321 -1.02865,-0.79523 -2.6306,-0.58475 -3.19564,-1.95118 -2.97625,-4.20881 -5.5591,-8.74454 -8.59541,-12.87885 -0.30229,-0.39506 -0.70403,-0.19663 -1.10846,-0.14689 z"
       id="path3819"
       inkscape:connector-curvature="0" />
    <path
       style="fill:#ffffff;fill-opacity:1"
       d="m 65.794563,108.32733 c -3.09803,4.60569 -5.921848,9.52066 -9.321733,13.84943 -1.419695,0.70047 -2.887119,1.15494 -4.492101,0.88077 -5.217359,-0.10543 -10.480421,-0.72876 -15.680053,-0.56873 -1.395405,0.85 -0.783003,2.91745 -1.116908,4.29556 -0.343543,1.39361 0.866782,2.5589 2.254575,2.19008 5.020841,0.31484 10.190286,0.49536 15.128237,0.87278 0.834909,1.35001 2.146293,2.27889 3.488992,3.03622 2.849502,4.31306 4.673123,9.25343 7.404119,13.64524 1.6815,0.74542 3.228253,-1.12829 4.808037,-1.58177 2.140293,-0.9073 -0.04534,-3.02754 -0.52242,-4.37423 -1.825151,-3.5441 -3.654961,-7.08579 -5.484125,-10.62781 0.715912,-1.36502 0.927381,-2.95353 0.266335,-4.37677 2.823327,-4.61059 6.242017,-8.91227 8.59375,-13.77841 0.289221,-1.75979 -2.053145,-2.23721 -3.091537,-3.17083 -0.667634,-0.46718 -1.537983,-1.05656 -2.235168,-0.29153 z"
       id="path3821"
       inkscape:connector-curvature="0" />
    <path
       style="fill:none;stroke:#ffffff;stroke-width:7;stroke-linejoin:round;stroke-miterlimit:4;stroke-dasharray:none;stroke-opacity:1"
       d="M 58,36.302734 A 27.697046,27.697046 0 0 0 30.302734,64 27.697046,27.697046 0 0 0 58,91.697266 27.697046,27.697046 0 0 0 85.697266,64 27.697046,27.697046 0 0 0 58,36.302734 Z"
       id="path4196"
       inkscape:connector-curvature="0" />
    <path
       style="fill:#ffffff;fill-opacity:1"
       d="m 68.298818,45.411395 c -1.436131,0.567519 -2.012571,2.702003 -3.074455,3.882991 -2.144077,3.071827 -3.933632,6.465253 -6.344934,9.30948 -1.449612,-0.113102 -2.543201,0.990145 -3.648793,1.633523 -5.669757,0.05785 -11.420727,-0.622453 -17.085483,-0.748804 -1.449078,0.746706 -0.760245,2.923879 -1.078579,4.335452 -0.331689,1.300663 0.613802,2.51475 1.996446,2.261826 5.263025,0.423419 10.541075,0.617661 15.812503,0.907563 1.231712,1.279465 2.943125,2.03388 3.577769,3.817471 2.422414,4.232012 4.399799,8.758878 6.835391,12.954861 1.442521,0.883191 2.973215,-0.985662 4.40472,-1.404204 1.416841,-0.304185 1.6161,-1.84025 0.747685,-2.83881 -2.087531,-4.249128 -4.29546,-8.440824 -6.456901,-12.671364 0.692052,-1.331396 0.727509,-2.83616 0.763495,-4.252485 2.514599,-4.766846 5.984102,-9.007088 8.507835,-13.756697 0.0047,-1.615524 -2.206242,-2.060439 -3.323176,-2.969156 -0.505705,-0.226339 -1.114816,-0.666806 -1.633523,-0.461647 z"
       id="path3815"
       inkscape:connector-curvature="0" />
    <ellipse
       style="fill:#ffffff;fill-opacity:1"
       id="path3823"
       transform="matrix(0.82500001,0,0,0.91034487,5.5862844,3.6959777)"
       cx="63.920456"
       cy="67.284088"
       rx="9.090909"
       ry="8.238636" />
    <ellipse
       transform="matrix(0.82500001,0,0,0.91034487,79.765623,3.2482755)"
       id="path3825"
       style="fill:#ffffff;fill-opacity:1"
       cx="63.920456"
       cy="67.284088"
       rx="9.090909"
       ry="8.238636" />
    <ellipse
       transform="matrix(0.82500001,0,0,0.91034487,3.7656234,66.248276)"
       id="path3827"
       style="fill:#ffffff;fill-opacity:1"
       cx="63.920456"
       cy="67.284088"
       rx="9.090909"
       ry="8.238636" />
    <ellipse
       style="fill:#ffffff;fill-opacity:1"
       id="path3829"
       transform="matrix(0.82500001,0,0,0.91034487,79.765623,66.248276)"
       cx="63.920456"
       cy="67.284088"
       rx="9.090909"
       ry="8.238636" />
  </g>
  <g
     inkscape:groupmode="layer"
     id="layer5"
     inkscape:label="FINISH"
     style="display:inline;opacity:0.5;filter:url(#filter3960)"
     sodipodi:insensitive="true">
    <path
       style="fill:url(#linearGradient3958);fill-opacity:1;stroke-width:1;stroke-miterlimit:4"
       d="M 34.999998,20 157,20 c 8.31,0 15,6.69 15,15 l 0,122 c 0,8.31 -6.69,15 -15,15 l -122.000002,0 c -8.31,0 -15,-6.69 -15,-15 l 0,-122 c 0,-8.31 6.69,-15 15,-15 z"
       id="rect3344"
       inkscape:connector-curvature="0" />
  </g>
</svg>
